<svg aria-hidden="true" style="position:absolute;width:0;height:0" xmlns="http://www.w3.org/2000/svg" overflow="hidden"><defs><symbol id="icon-home" viewBox="0 0 32 32"><path d="M32 18.451L16 6.031 0 18.451v-5.064L16 .967l16 12.42zM28 18v12h-8v-8h-8v8H4V18l12-9z"/></symbol><symbol id="icon-book" viewBox="0 0 32 32"><path d="M28 4v26H7a3 3 0 1 1 0-6h19V0H6C3.8 0 2 1.8 2 4v24c0 2.2 1.8 4 4 4h24V4h-2z"/><path d="M7.002 26H7a1 1 0 0 0 0 2h18.999v-2H7.002z"/></symbol><symbol id="icon-cart" viewBox="0 0 32 32"><path d="M12 29a3 3 0 1 1-6 0 3 3 0 0 1 6 0zM32 29a3 3 0 1 1-6 0 3 3 0 0 1 6 0zM32 16V4H8a2 2 0 0 0-2-2H0v2h4l1.502 12.877A4 4 0 0 0 8 24h24v-2H8a2 2 0 0 1-2-2v-.02L32 16z"/></symbol><symbol id="icon-lgraph" viewBox="0 0 32 32"><path d="M21 6L11 2 0 6v24l11-4 10 4 11-4V2L21 6zm-9-1.446l8 3.2v19.692l-8-3.2V4.554zM2 7.401l8-2.909v19.744l-8 2.909V7.401zm28 17.198l-8 2.909V7.764l8-2.909v19.744z"/></symbol><symbol id="icon-alarm" viewBox="0 0 32 32"><path d="M16 4C8.268 4 2 10.268 2 18s6.268 14 14 14 14-6.268 14-14S23.732 4 16 4zm0 25.25C9.787 29.25 4.75 24.213 4.75 18S9.787 6.75 16 6.75 27.25 11.787 27.25 18 22.213 29.25 16 29.25zM29.212 8.974a6 6 0 0 0-9.959-6.643 16.011 16.011 0 0 1 9.96 6.643zM12.748 2.331a6 6 0 1 0-9.96 6.643 16.008 16.008 0 0 1 9.96-6.643z"/><path d="M16 18v-8h-2v10h8v-2z"/></symbol><symbol id="icon-display" viewBox="0 0 32 32"><path d="M0 2v20h32V2H0zm30 18H2V4h28v16zm-9 4H11l-1 4-2 2h16l-2-2z"/></symbol><symbol id="icon-image" viewBox="0 0 32 32"><path d="M31.781 20.375l-8-10A1 1 0 0 0 23 10H9a1 1 0 0 0-.781.375l-8 10A1 1 0 0 0 0 21v9a2 2 0 0 0 2 2h28a2 2 0 0 0 2-2v-9c0-.227-.077-.447-.219-.625zM30 22h-7l-4 4h-6l-4-4H2v-.649L9.481 12H22.52l7.481 9.351V22z"/><path d="M23 16H9a1 1 0 0 1 0-2h14a1 1 0 0 1 0 2zM25 20H7a1 1 0 0 1 0-2h18a1 1 0 0 1 0 2z"/></symbol><symbol id="icon-search" viewBox="0 0 32 32"><path d="M31.008 27.231l-7.58-6.447c-.784-.705-1.622-1.029-2.299-.998a11.954 11.954 0 0 0 2.87-7.787c0-6.627-5.373-12-12-12s-12 5.373-12 12 5.373 12 12 12c2.972 0 5.691-1.081 7.787-2.87-.031.677.293 1.515.998 2.299l6.447 7.58c1.104 1.226 2.907 1.33 4.007.23s.997-2.903-.23-4.007zM12 20a8 8 0 1 1 0-16 8 8 0 0 1 0 16z"/></symbol><symbol id="icon-facebook" viewBox="0 0 32 32"><path d="M19 6h5V0h-5c-3.86 0-7 3.14-7 7v3H8v6h4v16h6V16h5l1-6h-6V7c0-.542.458-1 1-1z"/></symbol><symbol id="icon-instagram" viewBox="0 0 32 32"><path d="M16 2.881c4.275 0 4.781.019 6.462.094 1.563.069 2.406.331 2.969.55a4.952 4.952 0 0 1 1.837 1.194 5.015 5.015 0 0 1 1.2 1.838c.219.563.481 1.412.55 2.969.075 1.688.094 2.194.094 6.463s-.019 4.781-.094 6.463c-.069 1.563-.331 2.406-.55 2.969a4.94 4.94 0 0 1-1.194 1.837 5.02 5.02 0 0 1-1.837 1.2c-.563.219-1.413.481-2.969.55-1.688.075-2.194.094-6.463.094s-4.781-.019-6.463-.094c-1.563-.069-2.406-.331-2.969-.55a4.952 4.952 0 0 1-1.838-1.194 5.02 5.02 0 0 1-1.2-1.837c-.219-.563-.481-1.413-.55-2.969-.075-1.688-.094-2.194-.094-6.463s.019-4.781.094-6.463c.069-1.563.331-2.406.55-2.969a4.964 4.964 0 0 1 1.194-1.838 5.015 5.015 0 0 1 1.838-1.2c.563-.219 1.412-.481 2.969-.55 1.681-.075 2.188-.094 6.463-.094zM16 0c-4.344 0-4.887.019-6.594.094-1.7.075-2.869.35-3.881.744-1.056.412-1.95.956-2.837 1.85a7.833 7.833 0 0 0-1.85 2.831C.444 6.538.169 7.7.094 9.4.019 11.113 0 11.656 0 16s.019 4.887.094 6.594c.075 1.7.35 2.869.744 3.881.413 1.056.956 1.95 1.85 2.837a7.82 7.82 0 0 0 2.831 1.844c1.019.394 2.181.669 3.881.744 1.706.075 2.25.094 6.594.094s4.888-.019 6.594-.094c1.7-.075 2.869-.35 3.881-.744 1.05-.406 1.944-.956 2.831-1.844s1.438-1.781 1.844-2.831c.394-1.019.669-2.181.744-3.881.075-1.706.094-2.25.094-6.594s-.019-4.887-.094-6.594c-.075-1.7-.35-2.869-.744-3.881a7.506 7.506 0 0 0-1.831-2.844A7.82 7.82 0 0 0 26.482.843C25.463.449 24.301.174 22.601.099c-1.712-.081-2.256-.1-6.6-.1z"/><path d="M16 7.781c-4.537 0-8.219 3.681-8.219 8.219s3.681 8.219 8.219 8.219 8.219-3.681 8.219-8.219A8.221 8.221 0 0 0 16 7.781zm0 13.55a5.331 5.331 0 1 1 0-10.663 5.331 5.331 0 0 1 0 10.663zM26.462 7.456a1.919 1.919 0 1 1-3.838 0 1.919 1.919 0 0 1 3.838 0z"/></symbol><symbol id="icon-twitter" viewBox="0 0 32 32"><path d="M32 7.075a12.941 12.941 0 0 1-3.769 1.031 6.601 6.601 0 0 0 2.887-3.631 13.21 13.21 0 0 1-4.169 1.594A6.565 6.565 0 0 0 22.155 4a6.563 6.563 0 0 0-6.563 6.563c0 .512.056 1.012.169 1.494A18.635 18.635 0 0 1 2.23 5.195a6.56 6.56 0 0 0-.887 3.3 6.557 6.557 0 0 0 2.919 5.463 6.565 6.565 0 0 1-2.975-.819v.081a6.565 6.565 0 0 0 5.269 6.437 6.574 6.574 0 0 1-2.968.112 6.588 6.588 0 0 0 6.131 4.563 13.17 13.17 0 0 1-9.725 2.719 18.568 18.568 0 0 0 10.069 2.95c12.075 0 18.681-10.006 18.681-18.681 0-.287-.006-.569-.019-.85A13.216 13.216 0 0 0 32 7.076z"/></symbol><symbol id="icon-pinterest" viewBox="0 0 32 32"><path d="M16 0C7.175 0 0 7.175 0 16s7.175 16 16 16 16-7.175 16-16S24.825 0 16 0zm0 29.863c-1.431 0-2.806-.219-4.106-.619.563-.919 1.412-2.431 1.725-3.631.169-.65.863-3.294.863-3.294.45.863 1.775 1.594 3.175 1.594 4.181 0 7.194-3.844 7.194-8.625 0-4.581-3.738-8.006-8.544-8.006-5.981 0-9.156 4.019-9.156 8.387 0 2.031 1.081 4.563 2.813 5.369.262.125.4.069.463-.188.044-.194.281-1.131.387-1.575a.427.427 0 0 0-.094-.4c-.575-.694-1.031-1.975-1.031-3.162 0-3.056 2.313-6.019 6.256-6.019 3.406 0 5.788 2.319 5.788 5.637 0 3.75-1.894 6.35-4.356 6.35-1.363 0-2.381-1.125-2.05-2.506.394-1.65 1.15-3.425 1.15-4.613 0-1.063-.569-1.95-1.756-1.95-1.394 0-2.506 1.438-2.506 3.369 0 1.225.412 2.056.412 2.056s-1.375 5.806-1.625 6.887c-.281 1.2-.169 2.881-.05 3.975-5.156-2.012-8.813-7.025-8.813-12.9 0-7.656 6.206-13.863 13.862-13.863s13.863 6.206 13.863 13.863c0 7.656-6.206 13.863-13.863 13.863z"/></symbol></defs></svg>